# xmcd
#
# Track frame offsets:
#  150
#  10693
#  21667
#  33719
#  45032
#  56208
#  67066
#  78614
#  90793
#  100153
#  110098
#  119344
#  129295
#  139458
#  152505
#  164374
#  174425
#  185256
#  194806
#  204722
#  214669
#  227395
#  239733
#  251273
#  261087
#  270582
#  283405
#  293642
#
# Disc length: 4083 seconds
#
# Revision: 0
# Processed by: cddbd v1.5.2PL0 Copyright (c) Steve Scherf et al.
# Submitted via: AltoMP3_Maker 3.0
#
DISCID=9a0ff11c
DTITLE=Various Artist - Okeh 18000 Series - Hillbilly
DYEAR=1900
DGENRE=
TTITLE0=Ace Ball - One-armed Love
TTITLE1=Jimmy Haynie - The Fast Silver Meteor
TTITLE2=Onie Wheeler - Closing Time
TTITLE3=Link Davis - Fallin' for You
TTITLE4=Sammy Barnhart - I'm Wishing I Had You
TTITLE5=Joe and Rose Lee Maphis - Henhouse Serenade
TTITLE6=Webster Bros - 'Til the End of the World Rolls 'Round
TTITLE7=Carl Butler - I'll Go Steppin' Too
TTITLE8=Bill Morgan - Follow the Leader
TTITLE9=Ace Ball - There'll Be a New Day
TTITLE10=Helen Carter - I Like My Lovin' Overtime
TTITLE11=Billy Ray - She Buys and Buys and Buys
TTITLE12=Bill Morgan - Someone Like You
TTITLE13=Sammy Barnhart - Get off My Telephone
TTITLE14=Billy Ray - You Gotta Pet Me Baby
TTITLE15=Jimmie Haynie - Johnny on the Spot
TTITLE16=Onie Wheeler - I'll Swear You Don't Love Me
TTITLE17=Link Davis - Crawfish Crawl
TTITLE18=Helen Carter - Like All Get Out
TTITLE19=Jimmy Haynie - My Mind Goes Blank
TTITLE20=Joe and Rose Lee Maphis - The Go 'Fer Song
TTITLE21=Link Davis - Mama Say No
TTITLE22=Webster Bros - It's All Left up to You
TTITLE23=Onie Wheeler - Little Mama
TTITLE24=Sammy Barnhart - Hi-Dee, Da-Dee
TTITLE25=Billy Ray - I Couldn't Sleep Last Night
TTITLE26=Ace Ball - Lost
TTITLE27=Carl Butler - I Wouldn't Change You if I Could
EXTD=
EXTT0=
EXTT1=
EXTT2=
EXTT3=
EXTT4=
EXTT5=
EXTT6=
EXTT7=
EXTT8=
EXTT9=
EXTT10=
EXTT11=
EXTT12=
EXTT13=
EXTT14=
EXTT15=
EXTT16=
EXTT17=
EXTT18=
EXTT19=
EXTT20=
EXTT21=
EXTT22=
EXTT23=
EXTT24=
EXTT25=
EXTT26=
EXTT27=
PLAYORDER=
